<?xml version="1.0" encoding="UTF-8"?>
<svg xmlns="http://www.w3.org/2000/svg" xmlns:xlink="http://www.w3.org/1999/xlink" version="1.1" viewBox="0 0 83.603 68.625">
  <!-- Generator: Adobe Illustrator 29.1.0, SVG Export Plug-In . SVG Version: 2.1.0 Build 142)  -->
  <defs>
    <radialGradient id="radial-gradient" cx="67.681" cy="-351.735" fx="67.681" fy="-351.735" r="35.531" gradientTransform="translate(24.863 60.686) scale(.434 .058)" gradientUnits="userSpaceOnUse">
      <stop offset="0" stop-color="#000"/>
      <stop offset=".003" stop-color="#010101"/>
      <stop offset=".082" stop-color="#363636"/>
      <stop offset=".165" stop-color="#656565"/>
      <stop offset=".252" stop-color="#8e8e8e"/>
      <stop offset=".344" stop-color="#b1b1b1"/>
      <stop offset=".44" stop-color="#cdcdcd"/>
      <stop offset=".544" stop-color="#e3e3e3"/>
      <stop offset=".656" stop-color="#f3f3f3"/>
      <stop offset=".786" stop-color="#fcfcfc"/>
      <stop offset=".973" stop-color="#fff"/>
    </radialGradient>
  </defs>
  <g isolation="isolate">
    <g id="Layer_1">
      <rect x="0" y="0" width="83.603" height="68.625" fill="#f5f5f5"/>
      <path d="M69.633,40.393c0,1.129-6.902,2.047-15.414,2.047s-15.419-.918-15.419-2.047c0-1.136,6.9-2.052,15.419-2.052s15.414.916,15.414,2.052Z" fill="url(#radial-gradient)" mix-blend-mode="multiply" opacity=".6"/>
      <path d="M52.021,39.857c7.663,2.715,8.542-8.014,5.084-11.92.604-1.707-.073-4.263-1.875-6.466-2.331-2.812-5.626-3.932-7.358-2.505h0c-1.759,1.445-1.276,4.895,1.032,7.704,1.728,2.1,3.999,3.25,5.764,3.118.703.39,1.161.76,2.087,1.844,5.555,7.311-3.053,8.19-17.862-1.921-17.179-11.757-19.92-3.942-17.289,1.927,1.611,1.582.344,4.536,1.952,6.004,1.879,1.741,4.53,3.861,7.153,3.601-2.198-1.319-4.047-2.965-6.043-4.816-.08-.059-.135-.136-.164-.231-.051-.098-.098-.22-.102-.334l-.011-.069c-.03-.095-.015-.183.003-.293-.002-.113.037-.22.096-.3l1.762-3.344.004-.022c.011-.066.066-.125.096-.165.052-.038.124-.07.177-.106.069-.011.157.003.241.04.088.015.164.096.285.184l-.003.022,7.456,6.772h0c.099.085.223.15.332.169.049-2.163-4.624-6.115-6.587-7.893l-1.256-1.139h0c-1.472-1.197-2.752,1.301-4.393-.106-3.476-2.733,1.097-4.903,8.823-2.426,9.617,3.066,14.046,10.347,20.598,12.671h0ZM26.33,34.875c-.158-.139-.374-.199-.558-.184h0c-.205.01-.403.113-.565.267h0c-.14.159-.22.371-.21.576h0c-.007.18.069.396.227.535,9.152,6.765,9.335,6.886,1.106-1.193h0ZM27.388,32.883c-.153-.161-.348-.216-.553-.206h0c-.205.011-.4.091-.543.271h0c-.162.153-.221.369-.232.571.01.205.09.399.248.539h0c10.532,8.783,9.441,7.469,1.08-1.175h0Z" fill="#a36d3d" fill-rule="evenodd"/>
      <g>
        <path d="M23.219,45.979h-1.945v-.27h4.186v.27h-1.945v5.975h-.295v-5.975Z" fill="#545352"/>
        <path d="M26.789,52.067c-.654,0-1.161-.231-1.52-.694-.313-.423-.469-.976-.469-1.659,0-.688.156-1.241.469-1.658.347-.47.853-.704,1.52-.704.839,0,1.407.376,1.702,1.129v-1.033h.269v4.507h-.269v-.972c-.289.724-.857,1.085-1.702,1.085ZM25.469,51.182c.301.435.741.651,1.32.651s1.016-.217,1.311-.651c.261-.371.391-.859.391-1.468,0-.601-.13-1.091-.391-1.468-.295-.434-.732-.651-1.311-.651s-1.016.218-1.312.651c-.266.37-.399.86-.399,1.468s.13,1.097.391,1.468Z" fill="#545352"/>
        <path d="M31.513,51.815c.365,0,.666-.078.903-.234.284-.18.425-.442.425-.791,0-.416-.298-.706-.894-.867-.017-.006-.045-.016-.082-.026-.038-.012-.088-.023-.152-.035-.735-.191-1.21-.37-1.424-.538-.243-.191-.365-.451-.365-.781,0-.395.168-.698.503-.912.29-.186.637-.278,1.042-.278.417,0,.762.11,1.034.33.278.231.44.553.486.964h-.269c-.093-.7-.521-1.051-1.286-1.051-.318,0-.59.069-.816.208-.272.168-.408.403-.408.704,0,.452.46.793,1.38,1.024.012.012.041.021.087.026.475.122.805.246.99.373.307.203.46.492.46.869,0,.405-.17.726-.512.964-.307.202-.671.304-1.094.304-.48,0-.874-.118-1.181-.356-.319-.254-.498-.619-.539-1.094h.269c.144.799.625,1.198,1.441,1.198Z" fill="#545352"/>
        <path d="M34.231,46.214v1.233h.903v.243h-.903v4.264h-.278v-5.74h.278Z" fill="#545352"/>
        <path d="M38.191,53.518c-.271.128-.596.191-.972.191-.44,0-.793-.107-1.059-.321-.295-.232-.446-.559-.452-.982h.234c.017.364.159.637.425.816.238.168.541.251.912.251.665,0,1.129-.251,1.389-.755.029-.059.057-.123.083-.195.026-.073.045-.152.057-.239.017-.104.026-.261.026-.469v-.695c-.29.557-.797.834-1.52.834-1.03,0-1.546-.538-1.546-1.615v-2.987h.278v2.901c0,.48.087.833.261,1.06.197.26.53.391.999.391.851,0,1.345-.386,1.485-1.156.012-.08.021-.186.03-.316.009-.13.014-.285.014-.465v-2.414h.277v4.508c-.006.093-.015.187-.026.286-.012.099-.031.205-.06.321-.11.48-.388.831-.834,1.051Z" fill="#545352"/>
        <path d="M41.041,45.653h3.647v.278h-3.353v2.579h2.666v.269h-2.666v3.117h-.295v-6.244Z" fill="#a36d3d"/>
        <path d="M45.53,48.007c.348-.475.851-.712,1.511-.712s1.167.237,1.52.712c.312.417.469.967.469,1.65s-.156,1.236-.469,1.659c-.359.463-.866.694-1.52.694-.66,0-1.163-.231-1.511-.694-.312-.423-.469-.977-.469-1.659s.156-1.233.469-1.65ZM45.73,51.125c.301.434.737.651,1.31.651s1.014-.217,1.32-.651c.261-.371.391-.859.391-1.468,0-.602-.13-1.091-.391-1.468-.307-.434-.747-.651-1.32-.651-.578,0-1.016.218-1.31.651-.261.377-.391.866-.391,1.468,0,.608.13,1.097.391,1.468Z" fill="#a36d3d"/>
        <path d="M50.264,48.007c.348-.475.85-.712,1.511-.712s1.167.237,1.52.712c.312.417.469.967.469,1.65s-.156,1.236-.469,1.659c-.359.463-.866.694-1.52.694-.66,0-1.163-.231-1.511-.694-.312-.423-.469-.977-.469-1.659s.156-1.233.469-1.65ZM50.464,51.125c.301.434.737.651,1.31.651s1.014-.217,1.32-.651c.261-.371.391-.859.391-1.468,0-.602-.13-1.091-.391-1.468-.307-.434-.747-.651-1.32-.651-.579,0-1.016.218-1.31.651-.261.377-.392.866-.392,1.468,0,.608.131,1.097.392,1.468Z" fill="#a36d3d"/>
        <path d="M58.506,51.897h-.27v-.998c-.295.741-.862,1.111-1.702,1.111-.666,0-1.173-.231-1.52-.694-.313-.417-.47-.97-.47-1.659,0-.684.156-1.233.47-1.65.353-.475.859-.712,1.52-.712.856,0,1.424.361,1.702,1.085v-2.718h.27v6.235ZM57.846,48.189c-.295-.434-.732-.651-1.311-.651s-1.016.218-1.312.651c-.267.37-.399.86-.399,1.468s.13,1.097.391,1.468c.301.434.741.651,1.32.651s1.017-.217,1.311-.651c.26-.371.391-.859.391-1.468,0-.602-.131-1.091-.391-1.468Z" fill="#a36d3d"/>
      </g>
    </g>
  </g>
</svg>